<mxfile host="app.diagrams.net" modified="2024-07-15T18:00:05.224Z" agent="Mozilla/5.0 (X11; Linux x86_64) AppleWebKit/537.36 (KHTML, like Gecko) Chrome/126.0.0.0 Safari/537.36" etag="Tpfm1KRyFyGY_DkcCCX6" version="24.6.4" type="github">
  <diagram name="Page-1" id="VAzoH1neroOfFK-yLbb0">
    <mxGraphModel dx="2238" dy="1920" grid="1" gridSize="10" guides="1" tooltips="1" connect="1" arrows="1" fold="1" page="1" pageScale="1" pageWidth="850" pageHeight="1100" math="0" shadow="0">
      <root>
        <mxCell id="0" />
        <mxCell id="1" parent="0" />
        <mxCell id="xVPMfvStoHBgOn6tB0-w-1" value="Template" style="whiteSpace=wrap;html=1;verticalAlign=top;align=left;fillColor=#f5f5f5;fontColor=#333333;strokeColor=#666666;" parent="1" vertex="1">
          <mxGeometry x="-360" width="280" height="230" as="geometry" />
        </mxCell>
        <mxCell id="sldUWmz9j1VIk2YLgOAo-21" value="" style="group" parent="1" vertex="1" connectable="0">
          <mxGeometry y="190" width="230" height="155" as="geometry" />
        </mxCell>
        <mxCell id="sldUWmz9j1VIk2YLgOAo-22" value="" style="group" parent="sldUWmz9j1VIk2YLgOAo-21" vertex="1" connectable="0">
          <mxGeometry y="20" width="230" height="135" as="geometry" />
        </mxCell>
        <mxCell id="sldUWmz9j1VIk2YLgOAo-23" value="lin-ops&lt;div&gt;student :: password&lt;/div&gt;" style="verticalAlign=top;verticalLabelPosition=bottom;labelPosition=center;align=center;html=1;outlineConnect=0;fillColor=#dae8fc;strokeColor=#6c8ebf;gradientDirection=north;strokeWidth=2;shape=mxgraph.networks.pc;" parent="sldUWmz9j1VIk2YLgOAo-22" vertex="1">
          <mxGeometry x="35" width="100" height="70" as="geometry" />
        </mxCell>
        <mxCell id="sldUWmz9j1VIk2YLgOAo-24" value="ssh 22&lt;div&gt;http 80&lt;/div&gt;" style="text;html=1;align=center;verticalAlign=middle;resizable=0;points=[];autosize=1;strokeColor=none;fillColor=none;" parent="sldUWmz9j1VIk2YLgOAo-22" vertex="1">
          <mxGeometry x="-15" y="100" width="60" height="40" as="geometry" />
        </mxCell>
        <mxCell id="sldUWmz9j1VIk2YLgOAo-25" value="192.168.65.20" style="text;html=1;align=center;verticalAlign=middle;resizable=0;points=[];autosize=1;strokeColor=none;fillColor=none;" parent="sldUWmz9j1VIk2YLgOAo-22" vertex="1">
          <mxGeometry x="130" width="100" height="30" as="geometry" />
        </mxCell>
        <mxCell id="sldUWmz9j1VIk2YLgOAo-26" value="10.50.28.168" style="text;html=1;align=center;verticalAlign=middle;resizable=0;points=[];autosize=1;strokeColor=none;fillColor=none;" parent="sldUWmz9j1VIk2YLgOAo-22" vertex="1">
          <mxGeometry x="-55" width="90" height="30" as="geometry" />
        </mxCell>
        <mxCell id="sldUWmz9j1VIk2YLgOAo-27" value="xx" style="text;html=1;align=center;verticalAlign=middle;resizable=0;points=[];autosize=1;strokeColor=none;fillColor=none;" parent="sldUWmz9j1VIk2YLgOAo-22" vertex="1">
          <mxGeometry x="135" y="100" width="40" height="30" as="geometry" />
        </mxCell>
        <mxCell id="sldUWmz9j1VIk2YLgOAo-28" value="" style="group" parent="1" vertex="1" connectable="0">
          <mxGeometry x="313" y="190" width="225" height="150" as="geometry" />
        </mxCell>
        <mxCell id="sldUWmz9j1VIk2YLgOAo-29" value="" style="group" parent="sldUWmz9j1VIk2YLgOAo-28" vertex="1" connectable="0">
          <mxGeometry y="20" width="225" height="130" as="geometry" />
        </mxCell>
        <mxCell id="sldUWmz9j1VIk2YLgOAo-30" value="&lt;div&gt;pivot&lt;/div&gt;&lt;div&gt;student :: JQ00ViypQ4Vzuib&lt;/div&gt;" style="verticalAlign=top;verticalLabelPosition=bottom;labelPosition=center;align=center;html=1;outlineConnect=0;fillColor=#f8cecc;strokeColor=#b85450;gradientDirection=north;strokeWidth=2;shape=mxgraph.networks.pc;" parent="sldUWmz9j1VIk2YLgOAo-29" vertex="1">
          <mxGeometry x="35" width="100" height="70" as="geometry" />
        </mxCell>
        <mxCell id="sldUWmz9j1VIk2YLgOAo-31" value="22" style="text;html=1;align=center;verticalAlign=middle;resizable=0;points=[];autosize=1;strokeColor=none;fillColor=none;" parent="sldUWmz9j1VIk2YLgOAo-29" vertex="1">
          <mxGeometry x="-5" y="100" width="40" height="30" as="geometry" />
        </mxCell>
        <mxCell id="sldUWmz9j1VIk2YLgOAo-32" value="10.10.28.40" style="text;html=1;align=center;verticalAlign=middle;resizable=0;points=[];autosize=1;strokeColor=none;fillColor=none;" parent="sldUWmz9j1VIk2YLgOAo-29" vertex="1">
          <mxGeometry x="135" width="90" height="30" as="geometry" />
        </mxCell>
        <mxCell id="sldUWmz9j1VIk2YLgOAo-33" value="10.50.41.126" style="text;html=1;align=center;verticalAlign=middle;resizable=0;points=[];autosize=1;strokeColor=none;fillColor=none;" parent="sldUWmz9j1VIk2YLgOAo-29" vertex="1">
          <mxGeometry x="-55" width="90" height="30" as="geometry" />
        </mxCell>
        <mxCell id="sldUWmz9j1VIk2YLgOAo-34" value="xx" style="text;html=1;align=center;verticalAlign=middle;resizable=0;points=[];autosize=1;strokeColor=none;fillColor=none;" parent="sldUWmz9j1VIk2YLgOAo-29" vertex="1">
          <mxGeometry x="135" y="100" width="40" height="30" as="geometry" />
        </mxCell>
        <mxCell id="sldUWmz9j1VIk2YLgOAo-37" style="edgeStyle=orthogonalEdgeStyle;rounded=0;orthogonalLoop=1;jettySize=auto;html=1;exitX=1;exitY=0.5;exitDx=0;exitDy=0;exitPerimeter=0;" parent="1" source="sldUWmz9j1VIk2YLgOAo-23" edge="1">
          <mxGeometry relative="1" as="geometry">
            <mxPoint x="340" y="245" as="targetPoint" />
          </mxGeometry>
        </mxCell>
        <mxCell id="scS4vU-XQMT1hmCbZy8Z-1" value="CONDUCT PASSIVE RECON&lt;div&gt;ip addr&lt;/div&gt;&lt;div&gt;netstat/ss -antlp&lt;/div&gt;&lt;div&gt;ip route&lt;/div&gt;&lt;div&gt;ip addr&lt;/div&gt;&lt;div&gt;ip neigh&lt;/div&gt;&lt;div&gt;cd /usr/share/cctc&lt;/div&gt;&lt;div&gt;ps -elf | grep &amp;lt;process&amp;gt;&lt;/div&gt;&lt;div&gt;arp&lt;/div&gt;&lt;div&gt;cat /etc/hosts&lt;/div&gt;" style="text;html=1;align=center;verticalAlign=middle;resizable=0;points=[];autosize=1;strokeColor=#82b366;fillColor=#d5e8d4;" parent="1" vertex="1">
          <mxGeometry x="370" y="-210" width="180" height="160" as="geometry" />
        </mxCell>
        <mxCell id="scS4vU-XQMT1hmCbZy8Z-2" value="&lt;div&gt;CONDUCT ACTIVE RECON&lt;/div&gt;&lt;div&gt;./scan&lt;/div&gt;&lt;div&gt;nmap&lt;/div&gt;&lt;div&gt;nc &amp;lt;ip&amp;gt; &amp;lt;port&amp;gt;&lt;/div&gt;&lt;div&gt;ftp&lt;/div&gt;&lt;div&gt;wget -r&lt;/div&gt;&lt;div&gt;curl&lt;/div&gt;&lt;div&gt;cat /etc/ssh/sshd_config&amp;nbsp;&lt;/div&gt;&lt;div&gt;(look for default ports)&lt;/div&gt;" style="text;html=1;align=center;verticalAlign=middle;resizable=0;points=[];autosize=1;strokeColor=#82b366;fillColor=#d5e8d4;" parent="1" vertex="1">
          <mxGeometry x="550" y="-210" width="180" height="140" as="geometry" />
        </mxCell>
        <mxCell id="scS4vU-XQMT1hmCbZy8Z-3" value="proxychains ./scan.sh&lt;div&gt;proxychains scp [-P &amp;lt;port&amp;gt;] &amp;lt;user&amp;gt;@&amp;lt;ip&amp;gt;:&amp;lt;filepath&amp;gt;&amp;nbsp; &amp;lt;user&amp;gt;@&amp;lt;ip&amp;gt;:&amp;lt;filepath&amp;gt;&lt;/div&gt;&lt;div&gt;eom &amp;lt;file&amp;gt;&lt;/div&gt;&lt;div&gt;eog &amp;lt;file&amp;gt;&lt;/div&gt;&lt;div&gt;proxychains wget -r http/ftp://&amp;lt;ip&amp;gt;&lt;/div&gt;&lt;div&gt;nc &amp;lt;ip&amp;gt; [port]&lt;/div&gt;&lt;div&gt;pcmanfm&lt;/div&gt;" style="text;html=1;align=center;verticalAlign=middle;resizable=0;points=[];autosize=1;strokeColor=#82b366;fillColor=#d5e8d4;" parent="1" vertex="1">
          <mxGeometry x="930" y="-210" width="440" height="110" as="geometry" />
        </mxCell>
        <mxCell id="scS4vU-XQMT1hmCbZy8Z-4" value="&lt;div&gt;NMAP&lt;/div&gt;&lt;div&gt;namp &amp;lt;scan&amp;gt; ip(s) -p &amp;lt;ports&amp;gt;&lt;/div&gt;&lt;div&gt;&lt;br&gt;&lt;/div&gt;&lt;div&gt;&lt;span style=&quot;background-color: initial;&quot;&gt;-sP/-sn ping sweep&lt;/span&gt;&lt;br&gt;&lt;/div&gt;&lt;div&gt;-sT TCP connect&lt;/div&gt;&lt;div&gt;-sU UDP connect&lt;/div&gt;&lt;div&gt;-sL possible hostnames&lt;br&gt;&lt;/div&gt;&lt;div&gt;&lt;br&gt;&lt;/div&gt;&lt;div&gt;nmap -sT -T5 &amp;lt;ip&amp;gt; -p 1-5000&lt;/div&gt;&lt;div&gt;nmap -T5 &amp;lt;ip&amp;gt; --script http-enum&lt;/div&gt;" style="text;html=1;align=center;verticalAlign=middle;resizable=0;points=[];autosize=1;strokeColor=#82b366;fillColor=#d5e8d4;" parent="1" vertex="1">
          <mxGeometry x="730" y="-210" width="200" height="160" as="geometry" />
        </mxCell>
        <mxCell id="scS4vU-XQMT1hmCbZy8Z-5" value="&lt;div&gt;PROCESS&lt;/div&gt;&lt;div&gt;1) ssh to tgt&lt;/div&gt;&lt;div&gt;2) run &#39;ip a&#39; and &#39;arp -a&#39;&lt;/div&gt;&lt;div&gt;3) run enumeration script against second interface subnet&lt;/div&gt;&lt;div&gt;4) take note of potential targets&lt;/div&gt;&lt;div&gt;5) setup dynamic tunnel to target&lt;/div&gt;&lt;div&gt;6) run &#39;proxychains ./scan.sh&#39; or &#39;proxychains nmap -Pn -T5 -p &amp;lt;ports&amp;gt; against potential tgts&lt;/div&gt;&lt;div&gt;7) take notes of all open ports&lt;/div&gt;&lt;div&gt;8) banner grab everything using the appropriate protocol&lt;/div&gt;" style="text;html=1;align=center;verticalAlign=middle;resizable=0;points=[];autosize=1;strokeColor=#82b366;fillColor=#d5e8d4;" parent="1" vertex="1">
          <mxGeometry x="-140" y="-210" width="510" height="140" as="geometry" />
        </mxCell>
        <mxCell id="Tf39NvrSpZ8GJs31GOc9-1" value="" style="group" parent="1" vertex="1" connectable="0">
          <mxGeometry x="-350" y="40" width="265" height="150" as="geometry" />
        </mxCell>
        <mxCell id="sldUWmz9j1VIk2YLgOAo-1" value="" style="group" parent="Tf39NvrSpZ8GJs31GOc9-1" vertex="1" connectable="0">
          <mxGeometry x="40" width="225" height="150" as="geometry" />
        </mxCell>
        <mxCell id="sldUWmz9j1VIk2YLgOAo-2" value="" style="group" parent="sldUWmz9j1VIk2YLgOAo-1" vertex="1" connectable="0">
          <mxGeometry y="20" width="225" height="130" as="geometry" />
        </mxCell>
        <mxCell id="sldUWmz9j1VIk2YLgOAo-3" value="box_name&lt;div&gt;user :: pass&lt;/div&gt;" style="verticalAlign=top;verticalLabelPosition=bottom;labelPosition=center;align=center;html=1;outlineConnect=0;fillColor=#f8cecc;strokeColor=#b85450;gradientDirection=north;strokeWidth=2;shape=mxgraph.networks.pc;" parent="sldUWmz9j1VIk2YLgOAo-2" vertex="1">
          <mxGeometry x="35" width="100" height="70" as="geometry" />
        </mxCell>
        <mxCell id="sldUWmz9j1VIk2YLgOAo-4" value="xx" style="text;html=1;align=center;verticalAlign=middle;resizable=0;points=[];autosize=1;strokeColor=none;fillColor=none;" parent="sldUWmz9j1VIk2YLgOAo-2" vertex="1">
          <mxGeometry x="-5" y="100" width="40" height="30" as="geometry" />
        </mxCell>
        <mxCell id="sldUWmz9j1VIk2YLgOAo-5" value="xxx" style="text;html=1;align=center;verticalAlign=middle;resizable=0;points=[];autosize=1;strokeColor=none;fillColor=none;" parent="sldUWmz9j1VIk2YLgOAo-2" vertex="1">
          <mxGeometry x="160" width="40" height="30" as="geometry" />
        </mxCell>
        <mxCell id="sldUWmz9j1VIk2YLgOAo-20" value="xx" style="text;html=1;align=center;verticalAlign=middle;resizable=0;points=[];autosize=1;strokeColor=none;fillColor=none;" parent="sldUWmz9j1VIk2YLgOAo-2" vertex="1">
          <mxGeometry x="135" y="100" width="40" height="30" as="geometry" />
        </mxCell>
        <mxCell id="sldUWmz9j1VIk2YLgOAo-6" value="xxx" style="text;html=1;align=center;verticalAlign=middle;resizable=0;points=[];autosize=1;strokeColor=none;fillColor=none;" parent="Tf39NvrSpZ8GJs31GOc9-1" vertex="1">
          <mxGeometry y="20" width="40" height="30" as="geometry" />
        </mxCell>
        <mxCell id="VOmG_nPbeN_83onC7re3-1" value="" style="group" vertex="1" connectable="0" parent="1">
          <mxGeometry x="1030" y="190" width="265" height="150" as="geometry" />
        </mxCell>
        <mxCell id="VOmG_nPbeN_83onC7re3-2" value="" style="group" vertex="1" connectable="0" parent="VOmG_nPbeN_83onC7re3-1">
          <mxGeometry x="40" width="225" height="150" as="geometry" />
        </mxCell>
        <mxCell id="VOmG_nPbeN_83onC7re3-3" value="" style="group" vertex="1" connectable="0" parent="VOmG_nPbeN_83onC7re3-2">
          <mxGeometry y="20" width="225" height="130" as="geometry" />
        </mxCell>
        <mxCell id="VOmG_nPbeN_83onC7re3-4" value="donovian-windows-private&lt;div&gt;comrade :: StudentPrivPassword&lt;br&gt;&lt;/div&gt;" style="verticalAlign=top;verticalLabelPosition=bottom;labelPosition=center;align=center;html=1;outlineConnect=0;fillColor=#f8cecc;strokeColor=#b85450;gradientDirection=north;strokeWidth=2;shape=mxgraph.networks.pc;" vertex="1" parent="VOmG_nPbeN_83onC7re3-3">
          <mxGeometry x="35" width="100" height="70" as="geometry" />
        </mxCell>
        <mxCell id="VOmG_nPbeN_83onC7re3-5" value="rdp: 3389" style="text;html=1;align=center;verticalAlign=middle;resizable=0;points=[];autosize=1;strokeColor=none;fillColor=none;" vertex="1" parent="VOmG_nPbeN_83onC7re3-3">
          <mxGeometry x="-20" y="100" width="70" height="30" as="geometry" />
        </mxCell>
        <mxCell id="VOmG_nPbeN_83onC7re3-6" value="xxx" style="text;html=1;align=center;verticalAlign=middle;resizable=0;points=[];autosize=1;strokeColor=none;fillColor=none;" vertex="1" parent="VOmG_nPbeN_83onC7re3-3">
          <mxGeometry x="160" width="40" height="30" as="geometry" />
        </mxCell>
        <mxCell id="VOmG_nPbeN_83onC7re3-7" value="xx" style="text;html=1;align=center;verticalAlign=middle;resizable=0;points=[];autosize=1;strokeColor=none;fillColor=none;" vertex="1" parent="VOmG_nPbeN_83onC7re3-3">
          <mxGeometry x="135" y="100" width="40" height="30" as="geometry" />
        </mxCell>
        <mxCell id="VOmG_nPbeN_83onC7re3-8" value="192.168.28.5" style="text;html=1;align=center;verticalAlign=middle;resizable=0;points=[];autosize=1;strokeColor=none;fillColor=none;" vertex="1" parent="VOmG_nPbeN_83onC7re3-1">
          <mxGeometry x="-25" y="20" width="90" height="30" as="geometry" />
        </mxCell>
        <mxCell id="VOmG_nPbeN_83onC7re3-10" value="&lt;span style=&quot;color: rgb(0, 0, 0); font-family: Helvetica; font-size: 11px; font-style: normal; font-variant-ligatures: normal; font-variant-caps: normal; font-weight: 400; letter-spacing: normal; orphans: 2; text-align: center; text-indent: 0px; text-transform: none; widows: 2; word-spacing: 0px; -webkit-text-stroke-width: 0px; white-space: nowrap; background-color: rgb(255, 255, 255); text-decoration-thickness: initial; text-decoration-style: initial; text-decoration-color: initial; display: inline !important; float: none;&quot;&gt;ssh student@10.50.41.126 -L 1111:192.168.28.105:2222&lt;/span&gt;" style="edgeStyle=none;orthogonalLoop=1;jettySize=auto;html=1;shape=flexArrow;rounded=1;startSize=8;endSize=8;fillColor=#d5e8d4;strokeColor=#82b366;" edge="1" parent="1">
          <mxGeometry width="100" relative="1" as="geometry">
            <mxPoint x="80" y="440" as="sourcePoint" />
            <mxPoint x="770" y="440" as="targetPoint" />
            <Array as="points" />
          </mxGeometry>
        </mxCell>
        <mxCell id="VOmG_nPbeN_83onC7re3-11" value="" style="group" vertex="1" connectable="0" parent="1">
          <mxGeometry x="650" y="192.5" width="265" height="150" as="geometry" />
        </mxCell>
        <mxCell id="VOmG_nPbeN_83onC7re3-12" value="" style="group" vertex="1" connectable="0" parent="VOmG_nPbeN_83onC7re3-11">
          <mxGeometry x="40" width="225" height="150" as="geometry" />
        </mxCell>
        <mxCell id="VOmG_nPbeN_83onC7re3-13" value="" style="group" vertex="1" connectable="0" parent="VOmG_nPbeN_83onC7re3-12">
          <mxGeometry y="20" width="225" height="130" as="geometry" />
        </mxCell>
        <mxCell id="VOmG_nPbeN_83onC7re3-14" value="&lt;div&gt;ftp.site.donovia&lt;/div&gt;&lt;div&gt;comrade :: StudentReconPassword&lt;br&gt;&lt;/div&gt;" style="verticalAlign=top;verticalLabelPosition=bottom;labelPosition=center;align=center;html=1;outlineConnect=0;fillColor=#f8cecc;strokeColor=#b85450;gradientDirection=north;strokeWidth=2;shape=mxgraph.networks.pc;" vertex="1" parent="VOmG_nPbeN_83onC7re3-13">
          <mxGeometry x="35" width="100" height="70" as="geometry" />
        </mxCell>
        <mxCell id="VOmG_nPbeN_83onC7re3-15" value="ssh 2222" style="text;html=1;align=center;verticalAlign=middle;resizable=0;points=[];autosize=1;strokeColor=none;fillColor=none;" vertex="1" parent="VOmG_nPbeN_83onC7re3-13">
          <mxGeometry x="-20" y="100" width="70" height="30" as="geometry" />
        </mxCell>
        <mxCell id="VOmG_nPbeN_83onC7re3-16" value="xxx" style="text;html=1;align=center;verticalAlign=middle;resizable=0;points=[];autosize=1;strokeColor=none;fillColor=none;" vertex="1" parent="VOmG_nPbeN_83onC7re3-13">
          <mxGeometry x="160" width="40" height="30" as="geometry" />
        </mxCell>
        <mxCell id="VOmG_nPbeN_83onC7re3-17" value="xx" style="text;html=1;align=center;verticalAlign=middle;resizable=0;points=[];autosize=1;strokeColor=none;fillColor=none;" vertex="1" parent="VOmG_nPbeN_83onC7re3-13">
          <mxGeometry x="135" y="100" width="40" height="30" as="geometry" />
        </mxCell>
        <mxCell id="VOmG_nPbeN_83onC7re3-18" value="192.168.28.105" style="text;html=1;align=center;verticalAlign=middle;resizable=0;points=[];autosize=1;strokeColor=none;fillColor=none;" vertex="1" parent="VOmG_nPbeN_83onC7re3-11">
          <mxGeometry x="-35" y="20" width="110" height="30" as="geometry" />
        </mxCell>
        <mxCell id="VOmG_nPbeN_83onC7re3-19" value="&lt;span style=&quot;color: rgb(0, 0, 0); font-family: Helvetica; font-size: 11px; font-style: normal; font-variant-ligatures: normal; font-variant-caps: normal; font-weight: 400; letter-spacing: normal; orphans: 2; text-align: center; text-indent: 0px; text-transform: none; widows: 2; word-spacing: 0px; -webkit-text-stroke-width: 0px; white-space: nowrap; background-color: rgb(255, 255, 255); text-decoration-thickness: initial; text-decoration-style: initial; text-decoration-color: initial; display: inline !important; float: none;&quot;&gt;ssh comrade@127.0.0.1 -p 1111 -L 2222:192.168.28.5:3389&lt;/span&gt;" style="edgeStyle=none;orthogonalLoop=1;jettySize=auto;html=1;shape=flexArrow;rounded=1;startSize=8;endSize=8;fillColor=#d5e8d4;strokeColor=#82b366;" edge="1" parent="1">
          <mxGeometry width="100" relative="1" as="geometry">
            <mxPoint x="80.5" y="490" as="sourcePoint" />
            <mxPoint x="1160" y="490" as="targetPoint" />
            <Array as="points" />
          </mxGeometry>
        </mxCell>
        <mxCell id="VOmG_nPbeN_83onC7re3-21" value="&lt;div&gt;xfreerdp /v:127.0.0.1:2222 /u:comrade /p:StudentPrivPassword /size:1920x1024 +clipboard&lt;/div&gt;" style="edgeStyle=none;orthogonalLoop=1;jettySize=auto;html=1;shape=flexArrow;rounded=1;startSize=8;endSize=8;fillColor=#e1d5e7;strokeColor=#9673a6;" edge="1" parent="1">
          <mxGeometry width="100" relative="1" as="geometry">
            <mxPoint x="80" y="510" as="sourcePoint" />
            <mxPoint x="1159.5" y="510" as="targetPoint" />
            <Array as="points" />
          </mxGeometry>
        </mxCell>
      </root>
    </mxGraphModel>
  </diagram>
</mxfile>
